<svg width="24" height="24" viewBox="0 0 24 24" fill="none" xmlns="http://www.w3.org/2000/svg">
<path d="M3.00195 5.99971H5.00195M5.00195 5.99971H21.002M5.00195 5.99971L5.00195 19.9997C5.00195 20.5301 5.21267 21.0388 5.58774 21.4139C5.96281 21.789 6.47152 21.9997 7.00195 21.9997H17.002C17.5324 21.9997 18.0411 21.789 18.4162 21.4139C18.7912 21.0388 19.002 20.5301 19.002 19.9997V5.99971M8.00195 5.99971V3.99971C8.00195 3.46928 8.21267 2.96057 8.58774 2.5855C8.96281 2.21042 9.47152 1.99971 10.002 1.99971H14.002C14.5324 1.99971 15.0411 2.21042 15.4162 2.5855C15.7912 2.96057 16.002 3.46928 16.002 3.99971V5.99971" stroke="black" stroke-width="2" stroke-linecap="round" stroke-linejoin="round"/>
</svg>
